PathFileType	4	(X/Y/Z)	C:\Users\°ÂÌØÂü\Desktop\20210112\bx_n_0_503-Unnamed.trc
DataRate	CameraRate	NumFrames	NumMarkers	Units	OrigDataRate	OrigDataStartFrame	OrigNumFrames
50.00	50.00	       5	0	mm	50.00	167	       333
Frame#	Time	
		

167	3.320	-184.17690	135.13196	1507.83276	-392.14539	289.43115	1286.48340				-705.80231	-10.12468	804.91956	-765.60980	143.04539	571.12518	-703.36975	215.62790	795.78925	-791.77557	276.65543	737.23059	-810.32007	256.46008	632.00818	-737.26416	203.94298	536.87378	-819.32990	263.99799	491.39783	-517.95282	-73.07230	143.02869	-767.56592	70.77812	568.03162	-549.72803	-22.16095	162.35666	-676.22955	51.47918	162.15067	-796.96906	183.29803	182.52928	-768.54065	229.81868	203.36035	-590.29889	207.07660	173.01100	-882.71436	296.14297	144.65128	-553.99677	241.61786	165.45746	-652.23938	291.45703	156.70197	-615.05103	297.02295	158.63116	-527.99445	303.86084	146.51294	-371.69724	-62.99756	1284.80054	-892.83728	90.67191	1100.12988	-795.07495	35.80246	174.06238	-814.61542	-50.74794	478.97928	-601.21790	28.20942	167.75797	-875.78961	-78.57214	141.09050	-793.18597	-76.03100	868.22015	-792.29327	-68.67518	750.46265				-785.55670	-39.60391	610.65839	-785.66296	-36.85596	564.05371	-720.34235	152.77258	220.57259	-676.46692	168.44327	160.59764	-605.57263	-72.58697	157.32515	-648.38544	-68.33482	160.96054	-763.32410	-22.90740	204.25500	-729.40619	12.29444	524.28790				-725.97272	65.14236	219.22287				-807.15295	284.52567	871.13055				-794.24835	248.87791	569.18158	
168	3.340	-184.39647	134.96391	1507.04382	-392.60159	289.46646	1286.35449				-706.16644	-10.32973	805.18945	-765.75946	143.16193	571.10266	-703.27460	216.00230	796.20959	-792.25049	276.58438	736.95929	-810.43781	256.23737	631.81836	-737.37152	203.99583	536.86719	-819.81122	263.74246	491.42831	-517.85980	-72.95214	143.15100	-767.64154	70.58336	567.93115	-549.68555	-22.34332	162.60490	-676.12726	51.58000	162.07420	-796.88196	183.35167	182.39194	-768.50421	229.88797	203.29665	-590.23267	207.02768	173.12566	-882.58771	296.05701	144.70555	-553.96570	241.58430	165.34238	-652.16278	291.17981	156.45845	-615.04510	296.95413	158.44507	-528.00330	304.02573	146.47635	-372.06900	-63.21107	1284.38757	-893.60339	90.51272	1099.87708	-794.86932	35.59465	173.79785	-814.56793	-50.78830	478.87802	-601.26611	28.24773	167.96979	-875.95648	-78.79716	141.44162	-793.77466	-75.88504	867.89294	-792.66315	-68.81398	750.72272				-785.84521	-39.35867	610.38239	-785.73364	-36.77222	564.04260	-720.31036	152.88081	220.50374	-676.52484	168.54893	160.57722	-605.43665	-72.62829	157.45001	-648.33325	-68.30777	161.04430	-763.20831	-22.62803	204.08401	-729.68665	12.37508	524.14075				-725.84790	65.22176	219.34541				-808.32379	284.42429	870.70166				-794.46509	248.95477	569.12469	
169	3.360	-184.53137	134.98749	1506.75513	-393.20297	289.38193	1285.92883				-706.64520	-10.45826	805.23706	-766.48102	143.04909	570.97107	-703.73920	216.20848	796.41235	-792.61353	276.61139	736.93134	-810.61371	256.49265	631.69830	-737.63824	203.81270	536.84369	-819.52863	263.58698	490.96524	-518.00769	-72.99992	143.10075	-768.29132	70.54593	568.00403	-549.68842	-22.41158	162.53883	-676.25128	51.59475	162.01340	-797.03271	183.35252	182.42970	-768.40344	229.77264	203.27565	-590.31128	207.07216	173.11163	-882.57037	296.17642	144.82063	-553.98145	241.60043	165.37195	-652.21930	291.39432	156.78609	-615.01245	297.05060	158.51512	-528.07990	304.12091	146.50333	-372.25220	-63.34188	1284.00269	-893.78662	90.67675	1099.90369	-795.28094	36.10399	174.11241	-814.74487	-50.88668	478.96771	-601.29669	28.18776	167.87782	-875.97003	-78.68922	141.20143	-794.21588	-75.91033	868.07428	-793.38763	-68.73852	750.21509				-786.08038	-39.32753	610.20068	-786.38293	-36.94144	564.07184	-720.27429	152.85146	220.76929	-676.52484	168.54893	160.57722	-605.80023	-72.47283	157.63116	-648.43091	-68.27097	160.92607	-763.48724	-22.91972	204.37021	-729.96881	12.25820	524.14203				-725.97272	65.14236	219.22287				-808.32379	284.42429	870.70166				-794.46509	248.95477	569.12469	
170	3.380	-184.89784	135.33795	1506.41443	-393.68161	289.21973	1285.47852				-706.79980	-10.41539	805.16638	-766.38672	143.15097	571.08759	-704.27527	216.48445	796.42261	-793.26678	275.44305	736.04327	-811.10046	256.55420	631.37164	-738.16742	204.08087	536.67841	-819.96045	264.00024	491.24899	-517.81085	-72.96118	143.22667	-768.57898	70.64635	567.93854	-549.73291	-22.40792	162.47687	-676.01129	51.26028	161.98473	-797.07312	183.31761	182.39670	-768.33301	229.75134	203.31760	-590.23267	207.02768	173.12566	-882.64746	296.04587	144.66238	-554.03101	241.57201	165.30148	-652.09265	291.38522	156.80911	-615.04510	296.95413	158.44507	-528.02899	303.90448	146.31206	-372.63373	-63.24892	1283.58923	-894.11365	90.55669	1099.88855	-795.10968	35.81035	173.99908	-815.00623	-50.88758	478.72067	-601.36493	28.20526	167.86665	-875.88159	-78.69018	141.14127	-794.62848	-75.86514	867.81262	-793.53058	-68.56001	750.01660				-786.24817	-39.35245	610.23602	-786.56342	-36.80323	564.07147	-720.15186	152.92049	220.71460	-676.52484	168.54893	160.57722	-605.59265	-72.58841	157.66054	-648.41949	-68.26854	160.72192	-763.34729	-22.84713	204.00484	-730.54431	12.58341	523.69281				-725.99329	65.32326	219.24014				-808.91565	284.16064	870.46899				-794.48340	249.10219	569.10437	
171	3.400	-185.43227	135.56647	1506.05859	-394.08475	289.01865	1285.36255				-707.24005	-10.26260	804.96393	-766.69397	142.97966	570.95209	-704.55597	216.30376	796.12042	-793.53729	275.30280	735.95593	-811.20398	256.57663	631.34204	-738.22308	203.86237	536.79688	-819.95331	264.03152	491.28345	-517.94177	-72.92817	143.09164	-768.70404	70.66263	567.98846	-549.70636	-22.28076	162.45082	-676.12610	51.49887	162.11909	-797.10461	183.32619	182.29547	-768.50421	229.88797	203.29665	-590.23267	207.02768	173.12566	-882.50659	296.22247	144.72612	-553.98846	241.59750	165.49219	-652.27948	291.26877	156.63080	-614.98981	297.02420	158.45673	-528.10242	304.05182	146.59174	-373.16089	-63.10925	1283.40393	-894.82538	90.56614	1099.98865	-794.82355	35.60805	173.84067	-815.00623	-50.88758	478.72067	-601.29718	28.08205	167.81435	-875.95349	-78.78808	141.09819	-795.19720	-75.74937	867.54663	-793.87878	-68.60045	750.19147				-786.50885	-39.35627	610.08569	-786.84979	-37.05832	564.06720	-720.34235	152.77258	220.57259	-676.52484	168.54893	160.57722	-605.64185	-72.46976	157.51622	-648.32666	-68.24435	161.08141	-763.32410	-22.90740	204.25500	-729.60925	12.05249	524.59650				-725.84790	65.22176	219.34541				-809.55261	284.36020	870.40009				-795.09216	249.16547	569.19647	
